<?xml version="1.0"?>
<svg xmlns:rdf="http://www.w3.org/1999/02/22-rdf-syntax-ns#" xmlns="http://www.w3.org/2000/svg" xmlns:cc="http://creativecommons.org/ns#" xmlns:dc="http://purl.org/dc/elements/1.1/" xmlns:svg="http://www.w3.org/2000/svg" id="svg2" viewBox="0 0 453.14 541.76" version="1.1">
  <g id="layer1" transform="translate(-205.62 -310.54)">
    <path id="path3913" d="m526.02 584.31c-37.265 0-67.469 30.204-67.469 67.469 0 3.8882 0.33729 7.698 0.96875 11.406-15.362 17.756-24.781 41.671-24.781 67.969 0 54.801 40.864 99.219 91.281 99.219s91.312-44.418 91.312-99.219c0-26.297-9.4195-50.213-24.781-67.969 0.63146-3.7083 0.96875-7.518 0.96875-11.406 0-37.265-30.235-67.469-67.5-67.469z"/>
    <g id="g3937" transform="translate(-105.04 242.97)">
      <g id="g3939" transform="translate(-.000025)">
        <path id="path3941" stroke="#000" stroke-width="4" fill="none" d="m597.89 357.21c0-34.587-39.123-43.092-48.195-34.587"/>
        <path id="path3943" transform="matrix(1.3889 0 0 1.3889 -215.78 -141.37)" d="m553.4 335.1c0 2.8183-2.2847 5.103-5.103 5.103s-5.103-2.2847-5.103-5.103 2.2847-5.103 5.103-5.103 5.103 2.2847 5.103 5.103z"/>
      </g>
      <g id="g3945" transform="matrix(-1 0 0 1 1262.2 0)">
        <path id="path3947" stroke="#000" stroke-width="4" fill="none" d="m597.89 357.21c0-34.587-39.123-43.092-48.195-34.587"/>
        <path id="path3949" transform="matrix(1.3889 0 0 1.3889 -215.78 -141.37)" d="m553.4 335.1c0 2.8183-2.2847 5.103-5.103 5.103s-5.103-2.2847-5.103-5.103 2.2847-5.103 5.103-5.103 5.103 2.2847 5.103 5.103z"/>
      </g>
    </g>
    <g id="g3951" transform="translate(-105.04 242.97)" fill="#fff">
      <path id="path3953" transform="translate(58.969 6.8041)" d="m554.53 367.7c0 4.2275-3.4271 7.6546-7.6546 7.6546s-7.6546-3.4271-7.6546-7.6546 3.4271-7.6546 7.6546-7.6546 7.6546 3.4271 7.6546 7.6546z"/>
      <path id="path3955" transform="translate(109.43 6.8041)" d="m554.53 367.7c0 4.2275-3.4271 7.6546-7.6546 7.6546s-7.6546-3.4271-7.6546-7.6546 3.4271-7.6546 7.6546-7.6546 7.6546 3.4271 7.6546 7.6546z"/>
    </g>
    <g id="g3977" transform="translate(-11.943 -13.632)">
      <g id="g3917" transform="matrix(.97731 .21179 -.21179 .97731 9.0243 132.74)">
        <path id="path3919" fill="#f00" d="m563.47 416.19c-22.443 19.136-36.719 47.57-36.719 79.375 0 57.054 45.787 103.41 102.62 104.31v-183.69h-65.906z"/>
        <path id="path3921" stroke="#000" transform="matrix(.81810 0 0 .81810 494.07 151.32)" stroke-linecap="round" d="m141.42 366.97c0 5.8579-4.7487 10.607-10.607 10.607-5.8579 0-10.607-4.7487-10.607-10.607 0-5.8579 4.7487-10.607 10.607-10.607 5.8579 0 10.607 4.7487 10.607 10.607z"/>
        <path id="path3923" stroke="#000" transform="translate(433.66 126.21)" stroke-linecap="round" d="m141.42 366.97c0 5.8579-4.7487 10.607-10.607 10.607-5.8579 0-10.607-4.7487-10.607-10.607 0-5.8579 4.7487-10.607 10.607-10.607 5.8579 0 10.607 4.7487 10.607 10.607z"/>
        <path id="path3925" stroke="#000" transform="matrix(.86357 0 0 .86357 481.68 219.44)" stroke-linecap="round" d="m141.42 366.97c0 5.8579-4.7487 10.607-10.607 10.607-5.8579 0-10.607-4.7487-10.607-10.607 0-5.8579 4.7487-10.607 10.607-10.607 5.8579 0 10.607 4.7487 10.607 10.607z"/>
      </g>
      <g id="g3967" transform="matrix(-.97731 .21179 .21179 .97731 1066.9 132.74)">
        <path id="path3969" d="m563.47 416.19c-22.443 19.136-36.719 47.57-36.719 79.375 0 57.054 45.787 103.41 102.62 104.31v-183.69h-65.906z" fill="#f00"/>
        <path id="path3971" stroke="#000" transform="matrix(.81810 0 0 .81810 494.07 151.32)" stroke-linecap="round" d="m141.42 366.97c0 5.8579-4.7487 10.607-10.607 10.607-5.8579 0-10.607-4.7487-10.607-10.607 0-5.8579 4.7487-10.607 10.607-10.607 5.8579 0 10.607 4.7487 10.607 10.607z"/>
        <path id="path3973" stroke="#000" transform="translate(433.66 126.21)" stroke-linecap="round" d="m141.42 366.97c0 5.8579-4.7487 10.607-10.607 10.607-5.8579 0-10.607-4.7487-10.607-10.607 0-5.8579 4.7487-10.607 10.607-10.607 5.8579 0 10.607 4.7487 10.607 10.607z"/>
        <path id="path3975" stroke="#000" transform="matrix(.86357 0 0 .86357 481.68 219.44)" stroke-linecap="round" d="m141.42 366.97c0 5.8579-4.7487 10.607-10.607 10.607-5.8579 0-10.607-4.7487-10.607-10.607 0-5.8579 4.7487-10.607 10.607-10.607 5.8579 0 10.607 4.7487 10.607 10.607z"/>
      </g>
    </g>
  </g>
</svg>
